<svg width="18" height="16" viewBox="0 0 18 16" fill="none" xmlns="http://www.w3.org/2000/svg">
<path d="M17.8416 7.54375C16.2411 4.23719 13.0725 2 9.44432 2C5.81618 2 2.64668 4.23875 1.04703 7.54406C0.979513 7.68547 0.944336 7.8417 0.944336 8.00016C0.944336 8.15861 0.979513 8.31484 1.04703 8.45625C2.64757 11.7628 5.81618 14 9.44432 14C13.0725 14 16.242 11.7612 17.8416 8.45594C17.9091 8.31453 17.9443 8.1583 17.9443 7.99984C17.9443 7.84139 17.9091 7.68516 17.8416 7.54375ZM9.44432 12.5C8.60375 12.5 7.78205 12.2361 7.08315 11.7416C6.38424 11.2471 5.8395 10.5443 5.51783 9.72208C5.19616 8.89981 5.112 7.99501 5.27598 7.12209C5.43997 6.24918 5.84474 5.44736 6.43912 4.81802C7.03349 4.18868 7.79077 3.7601 8.61519 3.58647C9.4396 3.41283 10.2941 3.50195 11.0707 3.84254C11.8473 4.18314 12.5111 4.75991 12.9781 5.49993C13.4451 6.23995 13.6943 7.10998 13.6943 8C13.6946 8.59103 13.5848 9.17632 13.3714 9.72242C13.1579 10.2685 12.8448 10.7647 12.4501 11.1826C12.0554 11.6005 11.5868 11.932 11.071 12.158C10.5553 12.3841 10.0025 12.5003 9.44432 12.5ZM9.44432 5C9.19142 5.00374 8.94016 5.04358 8.69732 5.11844C8.89749 5.40646 8.99355 5.7609 8.96807 6.11748C8.9426 6.47406 8.79727 6.80917 8.55846 7.06203C8.31965 7.31489 8.00316 7.46876 7.66639 7.49574C7.32962 7.52271 6.99487 7.42101 6.72284 7.20906C6.56795 7.81331 6.59591 8.45377 6.80279 9.04031C7.00968 9.62685 7.38507 10.1299 7.87613 10.4787C8.36719 10.8275 8.9492 11.0045 9.54023 10.9847C10.1313 10.965 10.7016 10.7495 11.1708 10.3685C11.6401 9.9876 11.9848 9.46044 12.1563 8.86125C12.3278 8.26205 12.3175 7.62099 12.1269 7.0283C11.9363 6.43561 11.575 5.92114 11.0937 5.55728C10.6125 5.19343 10.0356 4.99853 9.44432 5Z" fill="#D6CCCC"/>
</svg>
