<svg width="17" height="17" viewBox="0 0 17 17" fill="none" xmlns="http://www.w3.org/2000/svg">
<g clip-path="url(#clip0_7_4069)">
<path d="M11.1562 0.53125V1.59375" stroke="#D6CCCC" stroke-width="2" stroke-linecap="round" stroke-linejoin="round"/>
<path d="M13.8125 1.39551L13.2812 2.26609" stroke="#D6CCCC" stroke-width="2" stroke-linecap="round" stroke-linejoin="round"/>
<path d="M15.6491 3.71875L14.6504 4.04082" stroke="#D6CCCC" stroke-width="2" stroke-linecap="round" stroke-linejoin="round"/>
<path d="M5.54771 6.57431L5.1672 5.91025C5.00869 5.63568 4.7476 5.43532 4.44137 5.35325C4.13514 5.27118 3.80884 5.31412 3.53427 5.47263C3.2597 5.63114 3.05934 5.89223 2.97727 6.19846C2.8952 6.5047 2.93815 6.83099 3.09665 7.10556L4.35837 9.29099" stroke="#D6CCCC" stroke-width="2" stroke-linecap="round" stroke-linejoin="round"/>
<path d="M7.27479 9.56282L5.54823 6.57454C5.46632 6.43849 5.41234 6.28748 5.38944 6.13034C5.36655 5.97319 5.37519 5.81306 5.41488 5.65929C5.45457 5.50553 5.5245 5.36121 5.62058 5.23477C5.71667 5.10833 5.83699 5.00231 5.97451 4.92289C6.11203 4.84348 6.264 4.79226 6.42154 4.77224C6.57908 4.75221 6.73902 4.76378 6.89204 4.80626C7.04506 4.84875 7.18808 4.9213 7.31274 5.01967C7.4374 5.11805 7.54121 5.24028 7.61811 5.37923L10.0386 9.56282" stroke="#D6CCCC" stroke-width="2" stroke-linecap="round" stroke-linejoin="round"/>
<path d="M6.7736 3.91806L6.39376 3.25399C6.31528 3.11804 6.21078 2.99888 6.08624 2.90331C5.9617 2.80774 5.81956 2.73763 5.66793 2.697C5.5163 2.65636 5.35815 2.64599 5.20251 2.66647C5.04687 2.68695 4.89679 2.73789 4.76083 2.81638C4.62488 2.89486 4.50571 2.99936 4.41014 3.1239C4.31457 3.24843 4.24447 3.39058 4.20383 3.54221C4.16319 3.69384 4.15282 3.85199 4.17331 4.00763C4.19379 4.16327 4.24473 4.31335 4.32321 4.44931L5.16724 5.91024" stroke="#D6CCCC" stroke-width="2" stroke-linecap="round" stroke-linejoin="round"/>
<path d="M7.61784 5.37923L6.77381 3.91829C6.6919 3.78224 6.63792 3.63123 6.61503 3.47409C6.59213 3.31694 6.60078 3.15681 6.64047 3.00304C6.68015 2.84928 6.75008 2.70496 6.84617 2.57852C6.94226 2.45208 7.06257 2.34606 7.2001 2.26664C7.33762 2.18723 7.48959 2.13601 7.64712 2.11599C7.80466 2.09596 7.96461 2.10753 8.11763 2.15001C8.27064 2.1925 8.41366 2.26505 8.53833 2.36342C8.66299 2.4618 8.7668 2.58403 8.8437 2.72298L11.3007 6.97298" stroke="#D6CCCC" stroke-width="2" stroke-linecap="round" stroke-linejoin="round"/>
<path d="M13.2146 12.4685C13.9399 11.7219 14.4018 10.759 14.53 9.72595C14.6583 8.69294 14.4459 7.64629 13.9251 6.74497L12.5246 4.3165C12.4461 4.18054 12.3416 4.06138 12.2171 3.96581C12.0926 3.87024 11.9504 3.80014 11.7988 3.7595C11.4926 3.67743 11.1663 3.72037 10.8917 3.87888C10.6171 4.03739 10.4168 4.29848 10.3347 4.60471C10.2526 4.91095 10.2956 5.23724 10.4541 5.51181" stroke="#D6CCCC" stroke-width="2" stroke-linecap="round" stroke-linejoin="round"/>
<path d="M5.43279 11.1559L4.09005 8.83169C3.93154 8.55711 3.67046 8.35676 3.36422 8.27469C3.05799 8.19262 2.73169 8.23556 2.45712 8.39407C2.18255 8.55258 1.98219 8.81367 1.90012 9.1199C1.81805 9.42613 1.861 9.75243 2.01951 10.027L2.65634 11.1287L4.35833 14.0778C4.99237 15.176 6.03669 15.9773 7.26156 16.3055C8.48643 16.6338 9.79152 16.4619 10.8897 15.8279C11.9879 15.1939 12.7893 14.1496 13.1175 12.9247C13.4457 11.6998 13.2739 10.3947 12.6399 9.29653L11.2985 6.97231C11.2237 6.82946 11.1209 6.70321 10.9961 6.60114C10.8713 6.49908 10.7272 6.4233 10.5723 6.37839C10.4175 6.33347 10.2552 6.32034 10.0952 6.33978C9.93514 6.35922 9.78069 6.41083 9.64112 6.4915C9.50155 6.57218 9.37974 6.68026 9.28302 6.80923C9.1863 6.9382 9.11667 7.08541 9.07831 7.24199C9.03996 7.39857 9.03368 7.56129 9.05984 7.72037C9.086 7.87944 9.14408 8.03157 9.23056 8.16762" stroke="#D6CCCC" stroke-width="2" stroke-linecap="round" stroke-linejoin="round"/>
</g>
<defs>
<clipPath id="clip0_7_4069">
<rect width="17" height="17" fill="white"/>
</clipPath>
</defs>
</svg>
