<svg width="24" height="24" viewBox="0 0 24 24" fill="none" xmlns="http://www.w3.org/2000/svg">
<path fill-rule="evenodd" clip-rule="evenodd" d="M9.38319 3.33688C9.38319 3.14756 9.45839 2.96599 9.59226 2.83212C9.72613 2.69825 9.9077 2.62305 10.097 2.62305H13.9041C14.0935 2.62305 14.275 2.69825 14.4089 2.83212C14.5428 2.96599 14.618 3.14756 14.618 3.33688C14.618 3.5262 14.5428 3.70777 14.4089 3.84164C14.275 3.97551 14.0935 4.05071 13.9041 4.05071H10.097C9.9077 4.05071 9.72613 3.97551 9.59226 3.84164C9.45839 3.70777 9.38319 3.5262 9.38319 3.33688ZM20.5666 13.8064C20.5666 14.9313 20.345 16.0452 19.9145 17.0845C19.4841 18.1238 18.8531 19.0681 18.0577 19.8635C17.2622 20.659 16.3179 21.2899 15.2786 21.7204C14.2394 22.1509 13.1255 22.3725 12.0006 22.3725C10.8757 22.3725 9.76178 22.1509 8.72251 21.7204C7.68323 21.2899 6.73892 20.659 5.9435 19.8635C5.14807 19.0681 4.5171 18.1238 4.08662 17.0845C3.65614 16.0452 3.43457 14.9313 3.43457 13.8064C3.43457 11.5346 4.33706 9.3558 5.9435 7.74936C7.54993 6.14293 9.72873 5.24044 12.0006 5.24044C14.2724 5.24044 16.4512 6.14293 18.0577 7.74936C19.6641 9.3558 20.5666 11.5346 20.5666 13.8064ZM12.9771 11.2128C12.7335 11.044 12.4846 10.8827 12.2309 10.7293C11.2096 10.1088 10.6995 9.7985 10.2417 10.1421C9.78484 10.4847 9.74296 11.2043 9.6592 12.6434C9.63636 13.0498 9.62113 13.4486 9.62113 13.8064C9.62113 14.1643 9.63636 14.5631 9.6592 14.9695C9.74296 16.4086 9.78484 17.1272 10.2417 17.4708C10.6995 17.8144 11.2106 17.5041 12.2309 16.8835C12.4955 16.7227 12.7515 16.559 12.9771 16.4C13.2341 16.2192 13.5149 16.0022 13.7975 15.7719C14.8207 14.9372 15.3318 14.5203 15.3318 13.8064C15.3318 13.0926 14.8207 12.6757 13.7975 11.841C13.5149 11.6107 13.235 11.3937 12.9771 11.2128Z" fill="white"/>
</svg>
